<svg xmlns="http://www.w3.org/2000/svg" width="64.24" height="118.02" viewBox="0 0 64.24 118.02">
  <defs>
    <style>
      .cls-1 {
        fill: #36b26c;
      }

      .cls-2 {
        fill: none;
        stroke: #1a1a1a;
        stroke-linecap: round;
        stroke-linejoin: round;
        stroke-width: 4px;
      }
    </style>
  </defs>
  <title>icon-plant</title>
  <g id="Calque_1" data-name="Calque 1">
    <g>
      <path class="cls-1" d="M64.24,51.3v14a2.15,2.15,0,0,1-1.81,2.37h-2l-5.87,41.55H20.25l-7-41.55h-2a2.15,2.15,0,0,1-1.81-2.37v-14a2.15,2.15,0,0,1,1.81-2.37H62.43A2.15,2.15,0,0,1,64.24,51.3Z"/>
      <path class="cls-2" d="M56.73,72.11a2.15,2.15,0,0,1-1.81,2.37H3.81A2.15,2.15,0,0,1,2,72.11v-14a2.15,2.15,0,0,1,1.81-2.37H54.92a2.15,2.15,0,0,1,1.81,2.37Z"/>
      <polygon class="cls-2" points="47.1 116.03 12.74 116.03 5.76 74.48 52.97 74.48 47.1 116.03"/>
      <path class="cls-2" d="M51.2,32.44c-2.57,5-8.22,8.56-14.92,9.08h-5s3.34,2.19,5,2.09V55.66H25.33V40.48A15.2,15.2,0,0,1,16.22,34a15.33,15.33,0,0,1-1.05-1.51c-3.6-5.89-7.58-20-3.38-22.6,2-1.22,5.47.39,9,3,.73.56,1.47,1.17,2.2,1.8a47.59,47.59,0,0,1,4.67,4.74c-1.25,2.86,0,8.71,0,8.71a22.68,22.68,0,0,1,1.62-6.67,20.84,20.84,0,0,1,1.19-1.93,47.55,47.55,0,0,1,6.17-7l1.22-1.14C44.49,5.33,53,.07,56.81,2.69,62.16,6.36,56.4,24.14,51.2,32.44Z"/>
      <path class="cls-2" d="M27.18,19.47c-1.25,2.86,0,8.71,0,8.71A22.68,22.68,0,0,1,28.8,21.5"/>
      <path class="cls-2" d="M36.08,43.61c-1.67.1-5-2.09-5-2.09h5"/>
    </g>
  </g>
</svg>
