<svg xmlns="http://www.w3.org/2000/svg" width="114.41" height="79.03" viewBox="0 0 114.41 79.03">
  <defs>
    <style>
      .cls-1 {
        fill: #78accc;
      }

      .cls-2 {
        fill: none;
        stroke: #1a1a1a;
        stroke-linecap: round;
        stroke-linejoin: round;
        stroke-width: 4px;
      }
    </style>
  </defs>
  <title>icon-laptop</title>
  <g id="Calque_1" data-name="Calque 1">
    <g>
      <path class="cls-1" d="M114.41,3.31V57.08H24V3.31A3.06,3.06,0,0,1,26.74,0h84.95A3.06,3.06,0,0,1,114.41,3.31Z"/>
      <path class="cls-2" d="M102.12,13.74V67.52H11.74V13.74a3.06,3.06,0,0,1,2.72-3.31H99.41A3.06,3.06,0,0,1,102.12,13.74Z"/>
      <rect class="cls-2" x="2" y="67.52" width="109.86" height="9.51" rx="2.72" ry="2.72"/>
      <line class="cls-2" x1="71.93" y1="36.88" x2="55.86" y2="52.94"/>
      <line class="cls-2" x1="67.48" y1="21.52" x2="35.75" y2="53.25"/>
      <rect class="cls-2" x="18.76" y="16.86" width="76.35" height="44.22"/>
    </g>
  </g>
</svg>
