<svg xmlns="http://www.w3.org/2000/svg" width="77.47" height="95.22" viewBox="0 0 77.47 95.22">
  <defs>
    <style>
      .cls-1 {
        fill: #7e5d3f;
      }

      .cls-2 {
        fill: none;
        stroke: #1a1a1a;
        stroke-linecap: round;
        stroke-linejoin: round;
        stroke-width: 4px;
      }
    </style>
  </defs>
  <title>icon-coffe</title>
  <g id="Calque_1" data-name="Calque 1">
    <g>
      <path class="cls-1" d="M70.74,28.58c8.83,17.36,8.76,36,1,47.09h0c-.37.53-.76,1-1.17,1.54a5,5,0,0,1-1.1.76,5.13,5.13,0,0,1-6.9-2.25L27.83,7.33A5.13,5.13,0,0,1,30.08.43a5.22,5.22,0,0,1,1-.37h0Q32.29,0,33.56,0C47,.41,62,11.32,70.74,28.58Z"/>
      <path class="cls-1" d="M14,57.4C22.86,74.77,38,85.71,51.47,86h0c.65,0,1.3,0,1.93,0a5,5,0,0,0,1.26-.44,5.13,5.13,0,0,0,2.25-6.9L22.16,10.21a5.13,5.13,0,0,0-7.77-1.69h0q-.8,1-1.52,2C5.27,21.62,5.26,40.15,14,57.4Z"/>
      <path class="cls-2" d="M65.44,35.82c8.83,17.36,8.77,36,1,47.09h0c-.37.53-.76,1-1.17,1.54a5,5,0,0,1-1.1.76A5.13,5.13,0,0,1,57.28,83L22.53,14.57a5.13,5.13,0,0,1,2.25-6.9,5.21,5.21,0,0,1,1-.37h0q1.24-.08,2.51,0C41.7,7.65,56.67,18.57,65.44,35.82Z"/>
      <path class="cls-2" d="M8.73,64.65C17.55,82,32.66,93,46.17,93.22h0c.65,0,1.3,0,1.94,0a5,5,0,0,0,1.26-.44,5.13,5.13,0,0,0,2.25-6.9L16.86,17.46A5.13,5.13,0,0,0,10,15.21a5.18,5.18,0,0,0-.87.56h0q-.8,1-1.52,2C0,28.87,0,47.39,8.73,64.65Z"/>
    </g>
  </g>
</svg>
