<svg xmlns="http://www.w3.org/2000/svg" width="130.24" height="59.27" viewBox="0 0 130.24 59.27">
  <defs>
    <style>
      .cls-1 {
        fill: #dd902f;
      }

      .cls-2 {
        fill: #272425;
      }

      .cls-3 {
        fill: none;
        stroke: #1a1a1a;
        stroke-linecap: round;
        stroke-linejoin: round;
        stroke-width: 4px;
      }
    </style>
  </defs>
  <title>icon-cat</title>
  <g id="Calque_1" data-name="Calque 1">
    <g>
      <path class="cls-1" d="M110.07,9.69C75-12.3,44.87,10,44.87,10A9.91,9.91,0,0,0,35,11.44c-2.66-4.8-4.49-6.91-7.34-6.68C25.23,5,25,10.06,25.18,13.57h0A20.13,20.13,0,0,0,16,19.32c-.93,1-7.59,0-7.59,0-.29,4.41,3.69,6.81,3.69,6.81A21.64,21.64,0,0,0,11.13,31,14.84,14.84,0,0,0,15,42.75s-6.08,2.52-6.08,9l43.17.11-.1-.06.3,0-.19,0h1.29l70.4.19S145.18,31.68,110.07,9.69ZM65.92,38.54h0Z"/>
      <path class="cls-2" d="M46.18,57l-.19,0h0l-.1-.06Z"/>
      <polygon class="cls-2" points="59.83 43.74 59.83 43.74 59.83 43.74 59.83 43.74"/>
      <path class="cls-2" d="M46.18,57l-.19,0h0l-.1-.06Z"/>
      <polygon class="cls-2" points="59.83 43.74 59.83 43.74 59.83 43.74 59.83 43.74"/>
      <polygon class="cls-2" points="59.83 43.74 59.83 43.74 59.83 43.74 59.83 43.74"/>
      <path class="cls-3" d="M19.08,22.07S17.56,10.26,21.32,10s5.74,3.47,10.21,12.11"/>
      <path class="cls-3" d="M18.81,18.78A19.44,19.44,0,0,0,4.76,36.18C3.57,50.49,18.88,54.59,23.33,54.59a17.54,17.54,0,0,0,13.89-6.28"/>
      <path class="cls-3" d="M24.64,52.07a3.69,3.69,0,0,0,1.2-2.85s2.83.89,4.26,0"/>
      <path class="cls-3" d="M27.75,43s3.67-1.22,4.7-3.6"/>
      <path class="cls-3" d="M13.68,47.4A14.12,14.12,0,0,0,20,47"/>
      <path class="cls-3" d="M5.71,31.34s-4-2.4-3.69-6.81c0,0,6.67,1,7.59,0"/>
      <path class="cls-3" d="M8.62,48s-6.08,2.52-6.08,9l114.86.3s21.41-20.38-13.7-42.38-65.21.34-65.21.34a9.9,9.9,0,0,0-9.83,1.42"/>
      <path class="cls-3" d="M45.71,57.08S37,52,42.57,46.49s11.32-3.55,13.54-3.4,40.64,9.74,52.36,1.06"/>
      <path class="cls-3" d="M96.56,47.6s2.2-1.56,2.23-7.17"/>
      <path class="cls-3" d="M59.56,43.74S58.44,21.05,85.91,25.17"/>
      <path class="cls-3" d="M35.46,50.13a12.5,12.5,0,0,0,11.54,7"/>
    </g>
  </g>
</svg>
