<svg xmlns="http://www.w3.org/2000/svg" width="96.25" height="91.77" viewBox="0 0 96.25 91.77">
  <defs>
    <style>
      .cls-1 {
        fill: #f4dc49;
      }

      .cls-2 {
        fill: #f4ea49;
      }

      .cls-3 {
        fill: none;
        stroke: #1a1a1a;
        stroke-linecap: round;
        stroke-linejoin: round;
        stroke-width: 4px;
      }
    </style>
  </defs>
  <title>icon-duck</title>
  <g id="Calque_1" data-name="Calque 1">
    <g>
      <path class="cls-1" d="M91.14,61.06q.05.65.05,1.3c0,12-13.35,21.73-35.42,21.73-41.22,0-48-29.68-48-41.68,0-11.35,20.76-.72,44-1.52v-.14a1.79,1.79,0,0,0,.93-3.31l0,0A20,20,0,0,1,42.52,20.31C42.52,9.09,52.44,0,64.68,0,76.61,0,86.33,8.64,86.82,19.46h0s.21,8-5.06,13.79c-.44.48-.9.95-1.38,1.39a3.78,3.78,0,0,0-.88.77,3.93,3.93,0,0,0,.8,5.82l0,0C86.11,45,91.19,52.73,91.19,59.6q0,.74-.05,1.46Z"/>
      <path class="cls-2" d="M74.7,40.33q-.43.39-.88.77A3.78,3.78,0,0,1,74.7,40.33Z"/>
      <path class="cls-2" d="M74.7,40.33q-.43.39-.88.77A3.78,3.78,0,0,1,74.7,40.33Z"/>
      <path class="cls-2" d="M79.08,38.82a4.76,4.76,0,0,1-1.43.29C78.12,39,78.6,38.92,79.08,38.82Z"/>
      <path class="cls-3" d="M85.41,66.74q.05.65.05,1.3c0,12-13.35,21.73-35.42,21.73C8.82,89.77,2,60.09,2,48.09c0-11.35,20.76-.72,44-1.52v-.14a1.79,1.79,0,0,0,.93-3.31l0,0A20,20,0,0,1,36.79,26c0-11.22,9.92-20.31,22.16-20.31,11.93,0,21.65,8.64,22.14,19.46h0a1,1,0,0,0-1,1,9.9,9.9,0,0,1-5,8.55,2.29,2.29,0,0,0-1.3,1.92c0,1,.94,1.95,2.26,2.31-.44.48-.9.95-1.38,1.39a3.78,3.78,0,0,0-.88.77,3.93,3.93,0,0,0,.8,5.82l0,0c5.83,3.76,10.91,11.48,10.91,18.35q0,.74-.05,1.46Z"/>
      <path class="cls-3" d="M74.64,40.33q-.43.39-.88.77A3.78,3.78,0,0,1,74.64,40.33Z"/>
      <path class="cls-3" d="M74.64,40.33q-.43.39-.88.77A3.78,3.78,0,0,1,74.64,40.33Z"/>
      <ellipse class="cls-3" cx="67.54" cy="22.47" rx="2.4" ry="4.17" transform="translate(-3.64 22.82) rotate(-18.69)"/>
      <path class="cls-3" d="M94.25,26.94a.07.07,0,0,1,0,0c0-.07,0-.13,0-.2A1.14,1.14,0,0,1,94.25,26.94Z"/>
      <path class="cls-3" d="M79,38.82a4.76,4.76,0,0,1-1.43.29C78.07,39,78.55,38.92,79,38.82Z"/>
      <path class="cls-3" d="M88.1,35.21a27,27,0,0,1-4.31,2.15,32.06,32.06,0,0,1-3.7,1.2L79,38.82c-.48.11-1,.2-1.43.29h-.26A5,5,0,0,1,76,38.93c-1.32-.36-2.26-1.26-2.26-2.31a2.29,2.29,0,0,1,1.3-1.92,9.9,9.9,0,0,0,5-8.55,1,1,0,0,1,1-1h.16c.17.1.36.19.55.27a13.79,13.79,0,0,0,5.56,1.07,14.51,14.51,0,0,0,4.91-.8h0l.19-.08a1.38,1.38,0,0,1,1.77,1.14c0,.07,0,.13,0,.2h0C94.32,29.77,92,32.81,88.1,35.21Z"/>
      <path class="cls-3" d="M89.38,39.15h0l0,.08a.71.71,0,0,1-.88.2.92.92,0,0,1-.19-.1l-.09-.07h0A9.76,9.76,0,0,0,85.84,38a10.33,10.33,0,0,0-2.05-.59,27,27,0,0,0,4.31-2.15C89.31,36.73,89.81,38.17,89.38,39.15Z"/>
      <path class="cls-3" d="M81.79,25.43c-.19-.09-.38-.18-.55-.27A1,1,0,0,1,81.79,25.43Z"/>
      <path class="cls-3" d="M69,67.45c0,6.64-5.71,12-12.75,12-22.22,0-32.65-13-29-18.56,4.17-6.44,22-5.5,29-5.5S69,60.81,69,67.45Z"/>
    </g>
  </g>
</svg>
