<svg xmlns="http://www.w3.org/2000/svg" width="30" height="30" viewBox="0 0 30 30">
  <defs>
    <style>
      .cls-1 {
        fill: #fff;
      }

      .cls-2 {
        fill: #bd081c;
      }
    </style>
  </defs>
  <title>pinterest-icon</title>
  <g id="Calque_1" data-name="Calque 1">
    <g>
      <circle class="cls-1" cx="15" cy="15" r="15"/>
      <path class="cls-2" d="M15,0A15,15,0,0,0,9.53,29a14.41,14.41,0,0,1,.05-4.31c.27-1.17,1.76-7.46,1.76-7.46A5.42,5.42,0,0,1,10.9,15c0-2.09,1.21-3.64,2.71-3.64a1.88,1.88,0,0,1,1.9,2.11c0,1.29-.82,3.21-1.24,5a2.18,2.18,0,0,0,2.22,2.71c2.67,0,4.72-2.81,4.72-6.87a5.92,5.92,0,0,0-6.27-6.1A6.49,6.49,0,0,0,8.16,14.7a5.84,5.84,0,0,0,1.12,3.42.45.45,0,0,1,.1.43L9,20.25c-.07.27-.22.33-.5.2-1.87-.87-3-3.61-3-5.81,0-4.73,3.44-9.08,9.91-9.08,5.2,0,9.25,3.71,9.25,8.66,0,5.17-3.26,9.33-7.78,9.33a4,4,0,0,1-3.44-1.72l-.93,3.57a16.77,16.77,0,0,1-1.86,3.93A15,15,0,1,0,15,0Z"/>
    </g>
  </g>
</svg>
