<svg xmlns="http://www.w3.org/2000/svg" width="120" height="133.64" viewBox="0 0 120 133.64">
  <defs>
    <style>
      .cls-1 {
        fill: #fff;
      }
    </style>
  </defs>
  <title>purjus_logo</title>
  <g id="Calque_1" data-name="Calque 1">
    <g>
      <path class="cls-1" d="M103.28,23.84V1.59c0-1.64-2.51-1.59-2.51-1.59H95.29a5.25,5.25,0,0,0-2,.7C89.21,4.54,77.69,22.77,76.61,23.62s-31.83,1.25-33.22,0C42.19,22.54,32.07,5.69,27.14,1.14A8.46,8.46,0,0,0,24,0H19.65s-2.92,0-2.92,1.22V71.62L54.6,95.93A18.8,18.8,0,0,0,60,97a12.23,12.23,0,0,0,5.41-1l37.87-24.3Z"/>
      <path class="cls-1" d="M1.74,125.29H8.12c3.28,0,5.43-2,5.43-5.31s-2.15-5.3-5.43-5.3H0v18.57H1.74Zm0-9.1h6c2.4,0,4.07,1.25,4.07,3.8s-1.67,3.8-4.07,3.8h-6Z"/>
      <path class="cls-1" d="M35.27,114.68H33.53v11.49c0,4.32-2,6-5.38,6s-5.38-1.64-5.35-6V114.68H21.06v11.88c0,3.82,2,7.07,7.09,7.07s7.12-3.25,7.12-7.07Z"/>
      <path class="cls-1" d="M57.46,128.49c-.13-2.21-.82-3.87-3.2-4.19v-.05a4.45,4.45,0,0,0,3.56-4.73c0-3.36-2.53-4.84-5.56-4.84H43.89v18.57h1.74V125h6.6c3.3-.13,3.51,2.76,3.66,5.36a7.46,7.46,0,0,0,.49,2.89H58.3C57.53,132.31,57.53,129.76,57.46,128.49Zm-5.33-5h-6.5v-7.31h6.5c2.61,0,3.94,1.43,3.94,3.69A3.65,3.65,0,0,1,52.13,123.5Z"/>
      <path class="cls-1" d="M75.19,128.07V114.68H73.45v12.64c0,3.41-.72,4.81-3.43,4.81-3.61,0-3.46-3.25-3.51-4.84H64.77c0,3.22.9,6.34,5.09,6.34C73.81,133.64,75.19,131.84,75.19,128.07Z"/>
      <path class="cls-1" d="M98,126.56V114.68H96.28v11.49c0,4.32-2,6-5.37,6s-5.38-1.64-5.35-6V114.68H83.81v11.88c0,3.82,2,7.07,7.09,7.07S98,130.39,98,126.56Z"/>
      <path class="cls-1" d="M120,128.31c0-3-2.16-4.17-4.73-4.87l-4.46-1.12c-1.48-.36-2.76-1.09-2.76-2.83,0-2.76,2.2-3.69,4.58-3.69,2.59,0,4.89,1.43,5,4.26h1.74c0-3.8-3.15-5.77-6.76-5.77-5.14,0-6.3,3.4-6.3,5.23,0,2.89,2,3.93,4.12,4.47l4.07,1c1.69.42,3.76,1.25,3.76,3.35,0,2.7-2.92,3.77-4.84,3.77-3.33,0-6-1.17-6-5h-1.74c-.2,4.52,3,6.5,7.3,6.5,6.37,0,7-3.89,7-5.23Z"/>
    </g>
  </g>
</svg>
