<svg xmlns="http://www.w3.org/2000/svg" width="294.85" height="38.72" viewBox="0 0 294.85 38.72">
  <defs>
    <style>
      .cls-1 {
        fill: #fff;
      }
    </style>
  </defs>
  <title>purjus_logo2</title>
  <g id="Calque_1" data-name="Calque 1">
    <g>
      <path class="cls-1" d="M33.16,9.91V1.39c0-.63-1-.61-1-.61H30.1a2,2,0,0,0-.75.27c-1.58,1.47-6,8.45-6.41,8.78s-12.19.48-12.73,0S5.88,3,4,1.22A3.24,3.24,0,0,0,2.8.78H1.12S0,.77,0,1.25v27l14.51,9.31a7.2,7.2,0,0,0,2.07.4,4.69,4.69,0,0,0,2.07-.4l14.51-9.31Z"/>
      <path class="cls-1" d="M58.2,22H71c6.56,0,10.86-3.9,10.86-10.62S77.51.78,71,.78H54.71V37.94H58.2Zm0-18.22h12c4.81,0,8.14,2.5,8.14,7.6S75,19,70.18,19h-12Z"/>
      <path class="cls-1" d="M125.29.78h-3.48v23c0,8.64-4,11.92-10.76,11.92s-10.76-3.28-10.71-11.92V.78H96.86V24.56c0,7.65,4,14.16,14.19,14.16s14.24-6.5,14.24-14.16Z"/>
      <path class="cls-1" d="M169.69,28.41c-.26-4.42-1.64-7.75-6.4-8.38v-.1c4.71-.94,7.12-4.79,7.12-9.47,0-6.71-5.07-9.68-11.12-9.68H142.54V37.94H146V21.44h13.22c6.61-.26,7,5.52,7.32,10.72.1,1.56.1,4.32,1,5.78h3.84C169.84,36.06,169.84,31,169.69,28.41ZM159,18.42H146V3.8h13c5.23,0,7.89,2.86,7.89,7.39S163.28,18.42,159,18.42Z"/>
      <path class="cls-1" d="M205.18,27.58V.78h-3.48V26.07c0,6.82-1.44,9.63-6.86,9.63-7.23,0-6.92-6.5-7-9.68h-3.48c0,6.45,1.79,12.7,10.19,12.7C202.41,38.72,205.18,35.12,205.18,27.58Z"/>
      <path class="cls-1" d="M250.86,24.56V.78h-3.48v23c0,8.64-4,11.92-10.75,11.92s-10.76-3.28-10.71-11.92V.78h-3.49V24.56c0,7.65,4,14.16,14.19,14.16S250.86,32.21,250.86,24.56Z"/>
      <path class="cls-1" d="M294.85,28.06c0-6.06-4.31-8.34-9.47-9.74l-8.92-2.24c-3-.73-5.53-2.18-5.53-5.67,0-5.52,4.4-7.39,9.17-7.39,5.18,0,9.79,2.86,10,8.53h3.48C293.62,4,287.27,0,280,0c-10.29,0-12.6,6.81-12.6,10.46,0,5.78,3.94,7.86,8.25,9l8.14,2c3.38.83,7.53,2.5,7.53,6.71,0,5.41-5.84,7.55-9.68,7.55-6.66,0-12.09-2.34-11.93-10h-3.48c-.41,9.05,5.94,13,14.6,13,12.75,0,13.95-7.78,14-10.47Z"/>
    </g>
  </g>
</svg>
