<svg xmlns="http://www.w3.org/2000/svg" width="887.76" height="105.88" viewBox="0 0 887.76 105.88">
  <defs>
    <style>
      .cls-1 {
        fill: #fff;
      }
    </style>
  </defs>
  <title>titre_nouvelle_agence</title>
  <g id="Calque_1" data-name="Calque 1">
    <g>
      <g>
        <path class="cls-1" d="M350.3,104.72l-9.4-21.85H298.5l-9.4,21.85h-24L308.77,3.59h21.85l43.69,101.13Zm-30.53-71L307,63.05h25.32Z"/>
        <path class="cls-1" d="M451.71,53.22h22.71V89.1q-15,16.78-41.67,16.78-22.28,0-37.4-14.76T380.24,53.87q0-22.49,15.41-37.54a51.29,51.29,0,0,1,37.18-15A55,55,0,0,1,470.67,15.6L458.95,32.53a44.75,44.75,0,0,0-12.51-8.17,33.59,33.59,0,0,0-12.37-2.24,29.62,29.62,0,0,0-21.7,8.75q-8.83,8.75-8.83,23.08T412,76.87a27.32,27.32,0,0,0,20.18,8.61q11.72,0,19.53-4.49Z"/>
        <path class="cls-1" d="M567.46,3.59V23.7H517.11V44.54h45.28V63.78H517.11v21H569v20H494.54V3.59Z"/>
        <path class="cls-1" d="M659.9,3.59h22.57V104.72H659.9L611.72,41.35v63.37H589.16V3.59h21.12L659.9,68.7Z"/>
        <path class="cls-1" d="M753.79,84.76q16.64,0,27.2-13.17l14.47,14.9q-17.22,19.39-40.58,19.39T716.4,91.12q-15.12-14.76-15.12-37.25t15.41-37.54q15.41-15,37.69-15,24.88,0,41.67,19L782,36.14Q771.3,22.84,755.39,22.83a31,31,0,0,0-21.77,8.32q-9,8.32-9,22.42t8.54,22.64A28.17,28.17,0,0,0,753.79,84.76Z"/>
        <path class="cls-1" d="M886.17,3.59V23.7H835.83V44.54h45.28V63.78H835.83v21h51.94v20H813.26V3.59Z"/>
      </g>
      <g>
        <path class="cls-1" d="M30.24,1h9.65V44.22H30.24L9.65,17.13V44.22H0V1H9L30.24,28.82Z"/>
        <path class="cls-1" d="M86.9,38.25a22.22,22.22,0,0,1-16.14,6.4,22.21,22.21,0,0,1-16.14-6.4,21.35,21.35,0,0,1-6.56-15.93A21.36,21.36,0,0,1,54.61,6.4,22.21,22.21,0,0,1,70.75,0,22.22,22.22,0,0,1,86.9,6.4a21.36,21.36,0,0,1,6.56,15.93A21.36,21.36,0,0,1,86.9,38.25Zm-3.28-15.9a14.15,14.15,0,0,0-3.71-9.86,12.23,12.23,0,0,0-18.25,0A14.15,14.15,0,0,0,58,22.36a14,14,0,0,0,3.71,9.83,12.3,12.3,0,0,0,18.25,0A14,14,0,0,0,83.62,22.36Z"/>
        <path class="cls-1" d="M113.06,33.06a7.9,7.9,0,0,0,6.49,3,7.81,7.81,0,0,0,6.46-3q2.38-3,2.38-8.19V1H138V25.17q0,9.4-5.19,14.44a18.3,18.3,0,0,1-13.3,5,18.35,18.35,0,0,1-13.33-5.07Q101,34.51,101,25.17V1h9.65V24.86Q110.64,30.06,113.06,33.06Z"/>
        <path class="cls-1" d="M167,30.86V24.92h70.38v5.94Z"/>
        <path class="cls-1" d="M70,89.46,81,61.94H91.49L74.11,105.17H65.95L48.57,61.94H59Z"/>
        <path class="cls-1" d="M127.79,61.94v8.6H106.27v8.91h19.36v8.23H106.27v9h22.2v8.54H96.62V61.94Z"/>
        <path class="cls-1" d="M137.07,105.17V61.94h9.65V96.58h18.43v8.6Z"/>
        <path class="cls-1" d="M172.2,105.17V61.94h9.65V96.58h18.43v8.6Z"/>
        <path class="cls-1" d="M238.5,61.94v8.6H217v8.91h19.36v8.23H217v9h22.2v8.54H207.33V61.94Z"/>
      </g>
    </g>
  </g>
</svg>
